<svg xmlns="http://www.w3.org/2000/svg" width="420" height="560" viewBox="0 0 420 560"><defs><linearGradient id="g" x1="0" y1="0" x2="1" y2="1"><stop stop-color="#26493a"/><stop offset="1" stop-color="#153d33"/></linearGradient><radialGradient id="brass"><stop stop-color="#f1d39b"/><stop offset=".65" stop-color="#b88a4d"/><stop offset="1" stop-color="#866237"/></radialGradient></defs><rect width="420" height="560" rx="6" fill="url(#g)"/><path d="M56 0v560" stroke="#537663" stroke-width="2" opacity=".6"/><circle cx="29" cy="115" r="11" fill="url(#brass)" stroke="#66512e" stroke-width="1.5"/><path d="M23 115h12" stroke="#82613a"/><circle cx="29" cy="445" r="11" fill="url(#brass)" stroke="#66512e" stroke-width="1.5"/><path d="M23 445h12" stroke="#82613a"/><text x="85" y="55" fill="#eee9d8" font-family="Arial,sans-serif" font-weight="bold" font-size="15" letter-spacing="4">EVNOI.</text><text x="85" y="82" fill="#a9c3ae" font-family="Arial,sans-serif" font-size="9" letter-spacing="2">A LITTLE MORE YOU, EVERY DAY.</text><path d="M104 238c17-22 34 22 50-1s33 22 48-2 30 20 43 1" fill="none" stroke="#d29478" stroke-width="4" stroke-linecap="round"/><path d="M245 237h98" stroke="#f1e6d5" stroke-width="3" stroke-linecap="round"/><circle cx="353" cy="237" r="4.5" fill="#eac995"/><text x="85" y="362" fill="#f8f2e7" font-family="Georgia,serif" font-size="45" letter-spacing="-1">Room to</text><text x="85" y="407" fill="#f8f2e7" font-family="Georgia,serif" font-size="45" font-style="italic" letter-spacing="-2">think.</text><path d="M85 475h270" stroke="#64806c"/><text x="85" y="501" fill="#d5d9c7" font-family="Arial,sans-serif" font-size="11" letter-spacing="2">30 PAGES  /  REFILLABLE</text><text x="85" y="523" fill="#9fb6a5" font-family="Arial,sans-serif" font-size="9" letter-spacing="2">THE 30-DAY RESET</text></svg>